<svg width="455" height="455" viewBox="0 0 455 455" fill="none" xmlns="http://www.w3.org/2000/svg">
<path fill-rule="evenodd" clip-rule="evenodd" d="M410.636 227.513C437.52 203.75 454.476 168.984 454.476 130.252C454.476 58.632 396.499 0.572266 324.981 0.572266C286.304 0.572266 251.588 17.5527 227.859 44.4753C204.131 17.5527 169.415 0.572266 130.738 0.572266C59.2197 0.572266 1.24284 58.632 1.24284 130.252C1.24284 168.829 18.0633 203.472 44.7603 227.226C17.6882 250.995 0.595581 285.885 0.595581 324.773C0.595581 396.393 58.5724 454.453 130.09 454.453C168.944 454.453 203.8 437.317 227.536 410.181C251.271 437.318 286.129 454.454 324.982 454.454C396.5 454.454 454.477 396.394 454.477 324.774C454.477 286.041 437.521 251.275 410.636 227.513Z" fill="#308CCD"/>
</svg>
