<svg width="16" height="16" viewBox="0 0 16 16" fill="none" xmlns="http://www.w3.org/2000/svg">
<path fill-rule="evenodd" clip-rule="evenodd" d="M6.88086 0.516602C10.6088 0.516602 13.6309 3.53868 13.6309 7.2666C13.6309 8.86019 13.0786 10.3248 12.1551 11.4795L14.9112 14.2363C15.2041 14.5292 15.2041 15.004 14.9112 15.2969C14.6408 15.5673 14.2154 15.5881 13.9212 15.3593L13.8505 15.2969L11.0937 12.5408C9.93905 13.4644 8.47444 14.0166 6.88086 14.0166C3.15294 14.0166 0.130859 10.9945 0.130859 7.2666C0.130859 3.53868 3.15294 0.516602 6.88086 0.516602ZM6.88086 2.0166C3.98136 2.0166 1.63086 4.36711 1.63086 7.2666C1.63086 10.1661 3.98136 12.5166 6.88086 12.5166C9.78035 12.5166 12.1309 10.1661 12.1309 7.2666C12.1309 4.36711 9.78035 2.0166 6.88086 2.0166Z" fill="#261003"/>
</svg>
