<svg width="116" height="20" viewBox="0 0 116 20" fill="none" xmlns="http://www.w3.org/2000/svg">
<path d="M2.58886 15.594V5.35C2.58886 4.674 2.54553 4.14533 2.45886 3.764C2.37219 3.36533 2.14686 3.088 1.78286 2.932C1.43619 2.776 0.846859 2.698 0.0148594 2.698V1.918H7.50286V2.698C6.68819 2.698 6.09886 2.776 5.73486 2.932C5.37086 3.088 5.14553 3.36533 5.05886 3.764C4.98953 4.14533 4.95486 4.674 4.95486 5.35V15.594C4.95486 16.3393 5.00686 16.9027 5.11086 17.284C5.21486 17.648 5.44886 17.8993 5.81286 18.038C6.17686 18.1593 6.74019 18.22 7.50286 18.22V19H0.0148594V18.22C0.794859 18.22 1.36686 18.1593 1.73086 18.038C2.09486 17.8993 2.32886 17.648 2.43286 17.284C2.53686 16.9027 2.58886 16.3393 2.58886 15.594ZM23.6858 6.598H22.8798C22.6892 5.64467 22.4898 4.91667 22.2818 4.414C22.0738 3.91133 21.7358 3.56467 21.2678 3.374C20.7998 3.18333 20.0805 3.088 19.1098 3.088H17.4718V15.594C17.4718 16.374 17.5325 16.9547 17.6538 17.336C17.7752 17.7 18.0178 17.9427 18.3818 18.064C18.7458 18.168 19.3005 18.22 20.0458 18.22V19H12.5058V18.22C13.2338 18.22 13.7798 18.168 14.1438 18.064C14.5078 17.9427 14.7505 17.7 14.8718 17.336C14.9932 16.9547 15.0538 16.374 15.0538 15.594V3.088H13.3898C12.4365 3.088 11.7172 3.18333 11.2318 3.374C10.7638 3.56467 10.4258 3.91133 10.2178 4.414C10.0098 4.91667 9.81049 5.64467 9.61983 6.598H8.81383L9.09983 1.918H23.4778L23.6858 6.598ZM39.3518 6.598H38.5458C38.3552 5.64467 38.1558 4.91667 37.9478 4.414C37.7398 3.91133 37.4018 3.56467 36.9338 3.374C36.4658 3.18333 35.7465 3.088 34.7758 3.088H33.1378V15.594C33.1378 16.374 33.1985 16.9547 33.3198 17.336C33.4412 17.7 33.6838 17.9427 34.0478 18.064C34.4118 18.168 34.9665 18.22 35.7118 18.22V19H28.1718V18.22C28.8998 18.22 29.4458 18.168 29.8098 18.064C30.1738 17.9427 30.4165 17.7 30.5378 17.336C30.6592 16.9547 30.7198 16.374 30.7198 15.594V3.088H29.0558C28.1025 3.088 27.3832 3.18333 26.8978 3.374C26.4298 3.56467 26.0918 3.91133 25.8838 4.414C25.6758 4.91667 25.4765 5.64467 25.2858 6.598H24.4798L24.7658 1.918H39.1438L39.3518 6.598ZM55.3039 14.164L54.5759 19H40.6919V18.22C41.4025 18.22 41.9312 18.1767 42.2779 18.09C42.6419 17.986 42.8845 17.7693 43.0059 17.44C43.1445 17.1107 43.2139 16.608 43.2139 15.932V5.09C43.2139 4.43133 43.1445 3.92867 43.0059 3.582C42.8845 3.23533 42.6419 3.00133 42.2779 2.88C41.9312 2.75867 41.4025 2.698 40.6919 2.698V1.918H54.3419L54.4979 6.182H53.6659C53.5445 5.31533 53.3539 4.66533 53.0939 4.232C52.8512 3.78133 52.4439 3.478 51.8719 3.322C51.3172 3.166 50.5025 3.088 49.4279 3.088H45.6059V9.692H48.6479C49.4452 9.692 50.0519 9.62267 50.4679 9.484C50.8839 9.34533 51.1699 9.08533 51.3259 8.704C51.4819 8.32267 51.5599 7.78533 51.5599 7.092H52.3919V13.124H51.5599C51.5599 12.4133 51.4819 11.8847 51.3259 11.538C51.1699 11.1913 50.8839 10.966 50.4679 10.862C50.0519 10.758 49.4452 10.706 48.6479 10.706H45.6059V17.856H48.9599C49.9652 17.856 50.7712 17.8127 51.3779 17.726C52.0019 17.622 52.4872 17.44 52.8339 17.18C53.1979 16.92 53.4925 16.5473 53.7179 16.062C53.9605 15.5767 54.2119 14.944 54.4719 14.164H55.3039ZM74.6213 1.918V2.698C74.1533 2.698 73.7979 2.74133 73.5553 2.828C73.3299 2.89733 73.1219 3.02733 72.9313 3.218C72.7233 3.39133 72.5586 3.69467 72.4373 4.128C72.3159 4.56133 72.2553 5.246 72.2553 6.182V19.208H71.3973L60.6333 5.298H60.5033V15.126C60.5033 15.9927 60.5639 16.6513 60.6853 17.102C60.8066 17.5353 61.0406 17.83 61.3873 17.986C61.7339 18.142 62.2279 18.22 62.8693 18.22V19H56.7853V18.22C57.4786 18.22 57.9986 18.1507 58.3453 18.012C58.6919 17.856 58.9259 17.5527 59.0473 17.102C59.1686 16.6513 59.2293 15.9927 59.2293 15.126V4.024C58.8133 3.48667 58.4493 3.13133 58.1373 2.958C57.8253 2.78467 57.3746 2.698 56.7853 2.698V1.918H61.2053L70.8253 14.476H70.9553V6.052C70.9553 5.272 70.9206 4.68267 70.8513 4.284C70.7819 3.88533 70.6519 3.57333 70.4613 3.348C70.2533 3.10533 70.0106 2.94067 69.7333 2.854C69.4559 2.75 69.0399 2.698 68.4853 2.698V1.918H74.6213ZM86.7681 6.858H85.9881C85.6241 5.41933 85.1388 4.35333 84.5321 3.66C83.9255 2.96667 82.9635 2.62867 81.6461 2.646C80.7621 2.646 80.0775 2.854 79.5921 3.27C79.1068 3.66867 78.8641 4.27533 78.8641 5.09C78.8641 5.73133 79.0461 6.286 79.4101 6.754C79.7741 7.20467 80.2508 7.612 80.8401 7.976C81.4295 8.34 82.0448 8.71267 82.6861 9.094C83.2581 9.42333 83.8301 9.75267 84.4021 10.082C84.9915 10.4113 85.5201 10.784 85.9881 11.2C86.4735 11.616 86.8548 12.1013 87.1321 12.656C87.4268 13.2107 87.5741 13.878 87.5741 14.658C87.5741 15.6633 87.3401 16.5127 86.8721 17.206C86.4215 17.8993 85.7975 18.428 85.0001 18.792C84.2028 19.1387 83.3015 19.312 82.2961 19.312C81.3948 19.312 80.6581 19.2427 80.0861 19.104C79.5315 18.9827 79.0895 18.8613 78.7601 18.74C78.4481 18.6013 78.1881 18.532 77.9801 18.532C77.8068 18.532 77.6508 18.61 77.5121 18.766C77.3735 18.922 77.2955 19.13 77.2781 19.39H76.4721L76.2381 13.774H77.0441C77.3561 14.97 77.7201 15.8887 78.1361 16.53C78.5521 17.154 79.0635 17.5873 79.6701 17.83C80.2941 18.0553 81.0481 18.168 81.9321 18.168C82.9028 18.168 83.6741 17.96 84.2461 17.544C84.8181 17.1107 85.1041 16.4 85.1041 15.412C85.1041 14.6493 84.8875 14.0167 84.4541 13.514C84.0381 13.0113 83.5008 12.5693 82.8421 12.188C82.1835 11.7893 81.4988 11.3907 80.7881 10.992C80.0948 10.5933 79.4275 10.1687 78.7861 9.718C78.1448 9.26733 77.6161 8.73 77.2001 8.106C76.8015 7.482 76.6021 6.71933 76.6021 5.818C76.6021 4.89933 76.8275 4.13667 77.2781 3.53C77.7288 2.906 78.3268 2.42933 79.0721 2.1C79.8175 1.77067 80.6408 1.606 81.5421 1.606C82.3395 1.606 82.9548 1.67533 83.3881 1.814C83.8215 1.93533 84.1595 2.06533 84.4021 2.204C84.6621 2.34267 84.8961 2.412 85.1041 2.412C85.5201 2.412 85.7888 2.16067 85.9101 1.658H86.5861L86.7681 6.858ZM105.382 1.918V2.698C104.879 2.73267 104.446 2.81933 104.082 2.958C103.735 3.09667 103.397 3.33933 103.068 3.686C102.756 4.03267 102.383 4.56133 101.95 5.272L98.1017 11.694V15.594C98.1017 16.3567 98.171 16.9287 98.3097 17.31C98.4657 17.674 98.7344 17.9167 99.1157 18.038C99.5144 18.1593 100.078 18.22 100.806 18.22V19H93.1097V18.22C93.8724 18.22 94.4357 18.168 94.7997 18.064C95.181 17.9427 95.4237 17.6913 95.5277 17.31C95.649 16.9287 95.7097 16.3567 95.7097 15.594V11.824L92.4077 6.494C91.8704 5.61 91.411 4.91667 91.0297 4.414C90.6484 3.91133 90.3017 3.53867 89.9897 3.296C89.695 3.036 89.4177 2.87133 89.1577 2.802C88.8977 2.73267 88.6117 2.698 88.2997 2.698V1.918H95.2937V2.698C94.5657 2.698 94.089 2.75 93.8637 2.854C93.6557 2.958 93.5517 3.10533 93.5517 3.296C93.5517 3.64267 93.699 4.04133 93.9937 4.492L96.3337 8.236L97.4777 10.264H97.6337L101.066 4.414C101.152 4.27533 101.222 4.11933 101.274 3.946C101.343 3.77267 101.378 3.59067 101.378 3.4C101.378 3.15733 101.265 2.984 101.04 2.88C100.814 2.75867 100.372 2.698 99.7137 2.698V1.918H105.382ZM106.707 4.804C106.707 3.92 106.898 3.14 107.279 2.464C107.678 1.77067 108.207 1.22467 108.865 0.825998C109.541 0.427332 110.295 0.227998 111.127 0.227998C111.994 0.227998 112.757 0.427332 113.415 0.825998C114.091 1.22467 114.62 1.77067 115.001 2.464C115.383 3.14 115.573 3.92 115.573 4.804C115.573 5.67067 115.383 6.45067 115.001 7.144C114.62 7.82 114.091 8.35733 113.415 8.756C112.757 9.13733 111.994 9.328 111.127 9.328C110.278 9.328 109.515 9.13733 108.839 8.756C108.181 8.35733 107.661 7.82 107.279 7.144C106.898 6.45067 106.707 5.67067 106.707 4.804ZM107.305 4.804C107.305 5.96533 107.652 6.92733 108.345 7.69C109.056 8.43533 109.983 8.808 111.127 8.808C112.271 8.808 113.199 8.43533 113.909 7.69C114.62 6.92733 114.975 5.96533 114.975 4.804C114.975 3.608 114.62 2.63733 113.909 1.892C113.199 1.12933 112.271 0.747999 111.127 0.747999C109.983 0.747999 109.056 1.12933 108.345 1.892C107.652 2.63733 107.305 3.608 107.305 4.804ZM113.181 3.66C113.181 4.09333 113.043 4.39667 112.765 4.57C112.505 4.74333 112.219 4.86467 111.907 4.934V4.986C112.011 5.10733 112.141 5.246 112.297 5.402C112.453 5.558 112.748 5.88733 113.181 6.39C113.303 6.52867 113.398 6.624 113.467 6.676C113.537 6.728 113.649 6.754 113.805 6.754V7.17H112.427C112.011 6.56333 111.725 6.156 111.569 5.948C111.413 5.72267 111.249 5.49733 111.075 5.272C110.971 5.15067 110.876 5.09 110.789 5.09H110.477V6.104C110.477 6.39867 110.521 6.58067 110.607 6.65C110.711 6.71933 110.937 6.754 111.283 6.754V7.17H108.735V6.754C109.013 6.754 109.203 6.71933 109.307 6.65C109.411 6.58067 109.463 6.39867 109.463 6.104V3.322C109.463 3.09667 109.42 2.94933 109.333 2.88C109.264 2.81067 109.082 2.776 108.787 2.776V2.412H111.023C111.578 2.412 112.072 2.49867 112.505 2.672C112.956 2.828 113.181 3.15733 113.181 3.66ZM110.477 2.906V4.648H110.737C111.188 4.648 111.517 4.57867 111.725 4.44C111.933 4.30133 112.037 4.04133 112.037 3.66C112.037 3.348 111.942 3.14867 111.751 3.062C111.578 2.958 111.309 2.906 110.945 2.906H110.477Z" fill="#261003"/>
</svg>
