<svg width="341" height="341" viewBox="0 0 341 341" fill="none" xmlns="http://www.w3.org/2000/svg">
<path fill-rule="evenodd" clip-rule="evenodd" d="M0.750488 97.895C0.750488 126.814 13.3777 152.783 33.4194 170.591C13.0959 188.409 0.26416 214.564 0.26416 243.716C0.26416 297.406 43.7885 340.931 97.4784 340.931C126.646 340.931 152.814 328.085 170.632 307.743C188.451 328.085 214.618 340.931 243.786 340.931C297.476 340.931 341 297.406 341 243.716C341 214.681 328.271 188.619 308.089 170.806C328.271 152.992 341 126.93 341 97.895C341 44.205 297.476 0.680664 243.786 0.680664C214.751 0.680664 188.689 13.4097 170.875 33.5919C153.062 13.4097 127 0.680664 97.9648 0.680664C44.2748 0.680664 0.750488 44.205 0.750488 97.895Z" fill="#774E4A"/>
</svg>
